<?xml version="1.0" encoding="utf-8"?>
<!-- Generator: Adobe Illustrator 21.1.0, SVG Export Plug-In . SVG Version: 6.00 Build 0)  -->
<svg version="1.1" id="Layer_1" xmlns="http://www.w3.org/2000/svg" xmlns:xlink="http://www.w3.org/1999/xlink" x="0px" y="0px"
	 viewBox="0 0 335.7 295.3" style="enable-background:new 0 0 335.7 295.3;" xml:space="preserve">
<style type="text/css">
	.st0{fill:#231F20;}
	.st1{fill:#37B2F7;}
</style>
<g>
	<path class="st0" d="M42.4,191.7l2.7-7.9h2.7l2.7,7.9h-2.1l-0.4-1.4h-3l-0.4,1.4H42.4z M45.4,188.7h2.1l-0.8-2.6
		c0-0.1-0.1-0.2-0.1-0.4c0-0.2-0.1-0.4-0.2-0.7c0,0.2-0.1,0.4-0.1,0.6c0,0.2-0.1,0.3-0.1,0.5L45.4,188.7z"/>
	<path class="st0" d="M64.1,191.7v-7.9h2.2v7.9H64.1z"/>
	<path class="st0" d="M80.7,191.7v-7.9h2.2c0.9,0,1.5,0,1.8,0.1c0.3,0.1,0.6,0.2,0.9,0.4c0.3,0.2,0.5,0.5,0.7,0.8
		c0.2,0.3,0.2,0.7,0.2,1.1c0,0.6-0.2,1.1-0.4,1.5c-0.3,0.4-0.7,0.6-1.3,0.8l2.1,3.2h-2.4l-1.8-3.1v3.1H80.7z M82.7,187.5h0.4
		c0.5,0,0.8-0.1,1-0.2s0.3-0.4,0.3-0.7c0-0.4-0.1-0.7-0.3-0.8c-0.2-0.2-0.5-0.3-1-0.3h-0.4V187.5z"/>
	<path class="st0" d="M44.4,203.1v3.5h-0.9v-7.9h1.6c0.6,0,1,0,1.3,0.1c0.3,0.1,0.5,0.2,0.7,0.3c0.3,0.2,0.4,0.4,0.6,0.7
		c0.1,0.3,0.2,0.7,0.2,1c0,0.4-0.1,0.7-0.2,1c-0.1,0.3-0.3,0.6-0.6,0.7c-0.2,0.1-0.4,0.2-0.7,0.3s-0.7,0.1-1.3,0.1h-0.3H44.4z
		 M44.4,202.3h0.5c0.8,0,1.3-0.1,1.6-0.3c0.3-0.2,0.4-0.5,0.4-1c0-0.5-0.1-0.9-0.4-1.1c-0.3-0.2-0.8-0.3-1.6-0.3h-0.5V202.3z"/>
	<path class="st0" d="M50.4,206.7v-7.9h0.9v7h3v0.9H50.4z"/>
	<path class="st0" d="M59.3,198.5l3.6,8.2h-1l-1-2.4h-3.1l-1,2.4h-1L59.3,198.5z M59.3,200.6l-1.3,2.9h2.5L59.3,200.6z"/>
	<path class="st0" d="M65.1,206.7v-8.2l5.8,6.3v-6h0.9v8.2l-5.8-6.2v5.9H65.1z"/>
	<path class="st0" d="M75,206.7v-7.9h4.1v0.9h-3.2v2.3h3.2v0.9h-3.2v3h3.2v0.9H75z"/>
	<path class="st0" d="M83.5,206.7v-7h-2.2v-0.9h5.4v0.9h-2.2v7H83.5z"/>
</g>
<circle class="st0" cx="56.8" cy="187.8" r="1.5"/>
<circle class="st0" cx="73.3" cy="187.8" r="1.5"/>
<g>
	<path class="st1" d="M63.8,168.3c-11.6-2.3-19.2-13-17-23.9c0.5-2.7,1.7-5.2,3.2-7.3c-4.5,4-7.3,9.9-7.3,16.4c0,12.1,9.8,22,22,22
		c9.8,0,18.2-6.5,21-15.4C81.1,166.5,72.6,170,63.8,168.3z"/>
	<path class="st1" d="M73.8,133.8c-10-4.3-21-1.2-24.4,6.9c-3.4,8.1,1.9,18.1,12,22.4c10,4.3,21,1.2,24.4-6.9
		C89.2,148.1,83.9,138.1,73.8,133.8z M81.9,150.8c-2.8,5.5-10.4,7.2-17.1,3.8c-6.7-3.4-9.8-10.6-7.1-16c2.8-5.5,10.4-7.2,17.1-3.8
		C81.5,138.2,84.6,145.3,81.9,150.8z"/>
	<ellipse transform="matrix(0.4524 -0.8918 0.8918 0.4524 -88.733 141.5541)" class="st1" cx="70.9" cy="143" rx="7.9" ry="9.7"/>
</g>
</svg>
